<svg width="673" height="40" viewBox="0 0 673 40" fill="none" xmlns="http://www.w3.org/2000/svg">
<g clip-path="url(#clip0_1_578)">
<path d="M282.327 3.83301L281.702 6.68026L282.327 9.80813C287.855 9.80813 292.352 14.3053 292.352 19.833C292.352 25.3608 287.855 29.8579 282.327 29.8579L281.702 32.4239L282.327 35.833C291.164 35.833 298.327 28.6696 298.327 19.833C298.327 10.9964 291.164 3.83301 282.327 3.83301Z" fill="#29CCCC"/>
<path d="M288.369 19.833C288.369 16.4964 285.664 13.7915 282.327 13.7915L281.702 19.833L282.327 25.8745C285.664 25.8745 288.369 23.1696 288.369 19.833Z" fill="#282866"/>
<path d="M272.302 29.8579V19.833C272.302 14.3053 276.8 9.80813 282.327 9.80813V3.83301C273.491 3.83301 266.327 10.9964 266.327 19.833V35.833H282.327V29.8579H272.302Z" fill="#2EE6E6"/>
<path d="M276.286 19.833C276.286 23.1696 278.991 25.8745 282.327 25.8745V13.7915C278.991 13.7915 276.286 16.4964 276.286 19.833Z" fill="#4A4080"/>
</g>
<path d="M308.062 31.333V7.76658H313.758V17.7317H314.069L321.859 7.76658H328.567L320.213 18.284L328.717 31.333H321.905L316.036 22.0698L313.758 24.9466V31.333H308.062ZM335.797 31.6322C334.669 31.6322 333.668 31.4442 332.793 31.0683C331.927 30.6848 331.24 30.1094 330.734 29.3423C330.235 28.5675 329.986 27.5971 329.986 26.431C329.986 25.4491 330.158 24.6206 330.504 23.9455C330.849 23.2704 331.324 22.7219 331.93 22.3C332.536 21.8781 333.235 21.5597 334.025 21.3449C334.815 21.1224 335.659 20.9728 336.556 20.8961C337.561 20.8041 338.371 20.7082 338.984 20.6084C339.598 20.501 340.043 20.3515 340.319 20.1597C340.603 19.9602 340.745 19.6802 340.745 19.3197V19.2621C340.745 18.6714 340.542 18.215 340.135 17.8928C339.728 17.5706 339.18 17.4095 338.489 17.4095C337.745 17.4095 337.147 17.5706 336.694 17.8928C336.242 18.215 335.954 18.6599 335.831 19.2276L330.642 19.0435C330.795 17.9695 331.19 17.0106 331.827 16.1667C332.471 15.3152 333.353 14.6478 334.473 14.1645C335.601 13.6735 336.955 13.428 338.535 13.428C339.663 13.428 340.703 13.5623 341.654 13.8308C342.605 14.0916 343.434 14.4752 344.139 14.9815C344.845 15.4801 345.39 16.0938 345.773 16.8226C346.165 17.5514 346.36 18.3837 346.36 19.3197V31.333H341.067V28.8705H340.929C340.614 29.4689 340.212 29.9752 339.721 30.3894C339.237 30.8037 338.666 31.1144 338.006 31.3215C337.354 31.5286 336.618 31.6322 335.797 31.6322ZM337.534 27.9499C338.14 27.9499 338.685 27.8272 339.168 27.5817C339.659 27.3362 340.051 26.9987 340.342 26.5691C340.634 26.1318 340.779 25.6255 340.779 25.0502V23.3701C340.618 23.4545 340.423 23.5312 340.192 23.6003C339.97 23.6693 339.725 23.7345 339.456 23.7959C339.188 23.8573 338.911 23.911 338.628 23.957C338.344 24.003 338.071 24.0452 337.811 24.0836C337.281 24.168 336.829 24.2984 336.453 24.4748C336.084 24.6512 335.801 24.8814 335.601 25.1652C335.409 25.4414 335.314 25.7713 335.314 26.1548C335.314 26.7379 335.521 27.1828 335.935 27.4897C336.357 27.7965 336.89 27.9499 337.534 27.9499ZM349.801 31.333V13.6582H355.152V16.9032H355.347C355.715 15.8292 356.337 14.9815 357.211 14.3601C358.086 13.7387 359.129 13.428 360.341 13.428C361.569 13.428 362.62 13.7426 363.494 14.3716C364.369 15.0007 364.925 15.8445 365.163 16.9032H365.347C365.677 15.8522 366.321 15.0122 367.28 14.3831C368.239 13.7464 369.371 13.428 370.675 13.428C372.347 13.428 373.705 13.965 374.748 15.039C375.791 16.1054 376.313 17.5706 376.313 19.4347V31.333H370.686V20.7235C370.686 19.8413 370.46 19.1701 370.007 18.7098C369.555 18.2418 368.968 18.0078 368.247 18.0078C367.472 18.0078 366.862 18.261 366.417 18.7673C365.98 19.266 365.761 19.9372 365.761 20.781V31.333H360.353V20.666C360.353 19.8451 360.13 19.1969 359.685 18.7213C359.24 18.2457 358.654 18.0078 357.925 18.0078C357.434 18.0078 357 18.1268 356.625 18.3646C356.249 18.5947 355.953 18.9246 355.739 19.3542C355.531 19.7838 355.428 20.2901 355.428 20.8731V31.333H349.801ZM379.8 31.333V13.6582H385.427V31.333H379.8ZM382.619 11.5984C381.829 11.5984 381.15 11.3376 380.582 10.8159C380.015 10.2866 379.731 9.6499 379.731 8.90578C379.731 8.16932 380.015 7.54027 380.582 7.01862C381.15 6.4893 381.829 6.22463 382.619 6.22463C383.417 6.22463 384.096 6.4893 384.656 7.01862C385.223 7.54027 385.507 8.16932 385.507 8.90578C385.507 9.6499 385.223 10.2866 384.656 10.8159C384.096 11.3376 383.417 11.5984 382.619 11.5984ZM397.27 31.6667C395.422 31.6667 393.826 31.3023 392.483 30.5735C391.149 29.8371 390.121 28.79 389.399 27.4321C388.686 26.0666 388.329 24.4441 388.329 22.5646C388.329 20.7389 388.69 19.1432 389.411 17.7777C390.132 16.4045 391.149 15.3382 392.46 14.5787C393.772 13.8116 395.318 13.428 397.098 13.428C398.356 13.428 399.507 13.6237 400.55 14.0149C401.593 14.4061 402.495 14.9853 403.254 15.7525C404.013 16.5196 404.604 17.467 405.026 18.5947C405.448 19.7147 405.659 20.9997 405.659 22.4496V23.8534H390.297V20.5854H400.423C400.416 19.9871 400.274 19.4539 399.997 18.9859C399.721 18.518 399.342 18.1536 398.858 17.8928C398.383 17.6243 397.834 17.49 397.213 17.49C396.584 17.49 396.02 17.632 395.521 17.9158C395.023 18.192 394.628 18.5717 394.336 19.055C394.044 19.5306 393.891 20.0714 393.876 20.6775V24.003C393.876 24.7241 394.018 25.357 394.301 25.9017C394.585 26.4387 394.988 26.8568 395.51 27.156C396.031 27.4551 396.653 27.6047 397.374 27.6047C397.873 27.6047 398.325 27.5357 398.732 27.3976C399.138 27.2595 399.487 27.0562 399.779 26.7877C400.07 26.5192 400.289 26.1894 400.435 25.7981L405.601 25.9477C405.387 27.1061 404.915 28.1149 404.186 28.9741C403.465 29.8256 402.518 30.4892 401.344 30.9648C400.17 31.4327 398.812 31.6667 397.27 31.6667Z" fill="#474747"/>
<defs>
<clipPath id="clip0_1_578">
<rect width="32" height="32" fill="white" transform="translate(266.327 3.83301)"/>
</clipPath>
</defs>
</svg>
